Coordinates
version=1
nRows=17
nColumns=36
inDegrees=yes

Units are S.I. units (second, meters, Newtons, ...)
If the header above contains a line with 'inDegrees', this indicates whether rotational values are in degrees (yes) or radians (no).

endheader
time	pelvis_tilt	pelvis_list	pelvis_rotation	pelvis_tx	pelvis_ty	pelvis_tz	hip_flexion_r	hip_adduction_r	hip_rotation_r	knee_angle_r	knee_angle_r_beta	ankle_angle_r	subtalar_angle_r	mtp_angle_r	hip_flexion_l	hip_adduction_l	hip_rotation_l	knee_angle_l	knee_angle_l_beta	ankle_angle_l	subtalar_angle_l	mtp_angle_l	lumbar_extension	lumbar_bending	lumbar_rotation	arm_flex_r	arm_add_r	arm_rot_r	elbow_flex_r	pro_sup_r	arm_flex_l	arm_add_l	arm_rot_l	elbow_flex_l	pro_sup_l
      0.00000000	      0.74295549	      3.80702200	      2.07760134	      0.41198951	      0.97945632	     -0.08154683	     -0.35667208	     -8.58131665	     -4.67828965	      8.96368168	      0.15644576	      5.88005706	    -10.06697829	     -5.96433034	     -1.05876819	     -6.61870048	     -7.80660646	      6.15794514	      0.10747642	      9.04676370	     -0.08431512	     -5.96433034	     -3.74616886	     -0.62091226	     -2.58698277	     35.35880287	     12.22474850	     66.78659018	    118.11123443	    106.65138201	     33.97229279	      4.50539298	     54.70227096	    120.81623876	    102.64858529
      0.01666670	     -0.24026179	      3.78430905	      1.34329218	      0.40993718	      0.97740242	     -0.07875388	      0.86478487	     -8.13734477	     -3.85269715	      8.68824562	      0.15163849	      8.27442307	     -9.51517248	     -6.42426576	      0.22311069	     -6.45932817	     -7.23568106	      5.62664911	      0.09820355	      8.15091946	      0.02158105	     -6.42426576	     -2.18878502	     -0.50027234	     -1.95265798	     36.65246707	     12.30626308	     68.31149197	    120.38262187	    104.48199986	     35.11793393	      3.08473079	     56.14260643	    124.50120574	     98.85621839
      0.03333330	     -0.91871607	      3.66915497	      1.06090194	      0.40645033	      0.97630646	     -0.08151391	      2.36670801	     -7.99416886	     -3.57051335	      9.73063733	      0.16983166	      7.73234874	    -11.47285950	     -6.44311288	      1.60720924	     -6.64747644	     -6.36856199	      6.37816984	      0.11132006	      7.90859508	      0.19195966	     -6.44311288	     -2.14053771	     -0.43249439	     -1.18758757	     37.04170317	     12.24972757	     69.81304472	    121.08212956	    104.48470494	     36.55681632	      2.97515992	     56.86462210	    125.92718856	     98.41676316
      0.05000000	     -0.91981473	      4.01699245	      1.06199213	      0.40022678	      0.97356770	     -0.08178584	      3.38290181	     -8.45074246	     -2.91392618	     11.12506779	      0.19416906	      7.96812477	    -13.55859218	     -6.77533146	      2.09826116	     -6.33842510	     -5.39900321	      6.74134658	      0.11765869	      7.90837925	     -0.97557790	     -6.77533146	     -2.96327211	     -1.10520058	     -0.75289555	     38.08168007	     12.12901947	     70.82439558	    121.04635175	    102.05986066	     39.11113222	      3.28753777	     57.68556326	    125.35199538	     89.68034713
      0.06666670	     -1.07514992	      4.40035338	      1.24865121	      0.39851223	      0.96548578	     -0.07983714	      4.55464882	     -8.80872913	     -2.50520937	     12.77706463	      0.22300185	      8.81988747	    -15.37853956	     -6.93481032	      3.23264634	     -6.11592308	     -4.92954500	      8.01026231	      0.13980545	      8.05719469	     -2.35081242	     -6.93481032	     -3.38715938	     -1.48424625	     -0.22049007	     39.44056107	     12.07101853	     71.51053763	    120.69465125	     98.19946021	     41.17326778	      3.95020069	     58.51526989	    125.47459286	     86.06075452
      0.08333330	     -1.23294070	      4.75910483	      1.55435246	      0.39899227	      0.96370974	     -0.07945161	      5.76357871	     -9.22236344	     -2.56626968	     14.71884262	      0.25689227	      9.89860269	    -16.50849916	     -7.06829482	      4.43019996	     -5.95087445	     -4.46418646	      9.71009895	      0.16947320	      8.83766512	     -3.06260802	     -7.06829482	     -3.51886573	     -1.94411973	      0.22228370	     40.46689443	     11.76925073	     71.35579659	    120.62437947	     98.29795552	     42.92293863	      4.85953593	     59.05278386	    125.04563737	     82.11648103
      0.10000000	     -1.45722823	      4.96258963	      1.90839020	      0.39356451	      0.95971419	     -0.08032124	      7.64109585	     -9.64054667	     -2.71059149	     17.48722792	      0.30520970	     11.42836676	    -17.16072109	     -7.14322410	      6.08149492	     -5.95227756	     -4.25509187	     11.94743032	      0.20852200	      9.99329558	     -3.68463475	     -7.14322410	     -3.77057772	     -2.06291746	      0.11331003	     41.97863857	     11.73632137	     71.44090180	    120.45282684	     95.16466205	     44.40327509	      5.52422908	     58.86876234	    124.93265536	     79.60900862
      0.11666670	     -1.72367739	      5.14052245	      2.20087033	      0.39499237	      0.95329626	     -0.08027342	      9.48575352	    -10.09858230	     -2.92112270	     20.36517488	      0.35543935	     13.32616742	    -17.35402692	     -7.18707497	      7.68297174	     -6.03492115	     -3.76876653	     14.36364040	      0.25069282	     11.56377242	     -4.06187387	     -7.18707497	     -3.78584640	     -2.32351817	      0.07047666	     42.99636432	     11.73354830	     70.93643896	    120.42315423	     92.73780181	     45.33035034	      6.29120388	     58.50238830	    124.91280484	     78.05268433
      0.13333330	     -2.04442240	      5.14530136	      2.04161232	      0.38722784	      0.94795857	     -0.07797602	     11.96666691	    -10.23405271	     -2.48085800	     23.71356338	      0.41387976	     14.88772776	    -17.88430336	     -7.22655088	      9.94893072	     -6.51045137	     -4.03723708	     17.76967299	      0.31013930	     13.48744913	     -3.79643201	     -7.22655088	     -4.44886694	     -2.40122543	      0.15927383	     44.38811323	     11.39768836	     69.89771751	    121.27931705	     91.51363655	     47.05246237	      6.81680244	     58.42781955	    125.35978572	     76.40413387
      0.15000000	     -2.58916764	      5.11943757	      1.61018735	      0.37784280	      0.93932128	     -0.07314487	     15.16885925	    -10.20525636	     -1.77710307	     27.51969192	      0.48030923	     17.17358052	    -18.01268624	     -7.29801771	     13.27787633	     -7.13825047	     -3.82088446	     22.47268140	      0.39222228	     15.43782855	     -4.66685515	     -7.29801771	     -5.39020609	     -2.57585296	      0.30943142	     45.83927769	     11.19383215	     67.98288882	    122.48184214	     94.50050747	     48.85697580	      7.24739786	     57.98859644	    125.98794756	     74.42083402
      0.16666670	     -3.28042798	      5.08026422	      1.44072374	      0.37116039	      0.93095167	     -0.07116180	     18.49690591	    -10.19427884	     -1.32952899	     31.28475934	      0.54602206	     18.97092724	    -18.18291003	     -7.32167102	     17.08663627	     -7.76180468	     -3.66679508	     27.39826648	      0.47818996	     16.93658807	     -5.77784186	     -7.32167102	     -6.68064060	     -2.61717046	      0.24831411	     47.44411958	     11.20981368	     66.74965475	    123.05236922	     92.26699263	     50.93602615	      6.96335807	     57.45316084	    126.76703957	     73.04302584
      0.18333330	     -3.94735862	      5.03794142	      1.57009888	      0.37073934	      0.91728531	     -0.06956630	     21.81714663	    -10.44303238	     -1.60324186	     35.55334032	      0.62052285	     21.58958442	    -17.37586471	     -7.36409045	     21.45238072	     -8.60870032	     -4.10461361	     33.41518839	      0.58320506	     19.13904935	     -5.93249371	     -7.36409045	     -7.81574168	     -2.95430417	      0.17877484	     49.07286397	     11.42869242	     65.75882093	    123.97227709	     95.26604384	     53.53052806	      7.73842061	     57.96672916	    127.38933084	     73.41136446
      0.20000000	     -4.50242018	      4.82535834	      1.80195113	      0.37266284	      0.90875280	     -0.07060492	     24.66629485	    -10.76239666	     -2.20504758	     39.74097348	      0.69361084	     23.32596148	    -16.95938112	     -7.36827816	     25.00210700	     -9.60749534	     -4.63103239	     38.48907937	      0.67176116	     21.23635396	     -5.33449327	     -7.36827816	     -8.55763962	     -2.93025404	     -0.11151369	     50.60911310	     11.71591139	     65.26064559	    124.69828037	     95.30610070	     55.60900809	      8.52896090	     58.32121002	    127.95717625	     73.39894709
      0.21666670	     -5.18454198	      4.58049635	      1.77451209	      0.36557713	      0.90016499	     -0.06868305	     27.39103433	    -10.98074298	     -2.74691260	     43.00135849	      0.75051529	     25.13872862	    -15.72429056	     -7.37768417	     28.25414626	    -10.57164805	     -4.94824623	     42.64829348	      0.74435314	     23.34001079	     -4.64224957	     -7.37768417	     -9.68035309	     -2.76196279	     -0.07293165	     52.46678956	     12.00020651	     65.65290969	    125.36912494	     94.29641010	     57.51476555	      9.15894891	     58.98085663	    128.69822713	     72.57195590
      0.23333330	     -5.91334127	      4.38151434	      1.48309747	      0.36076645	      0.88585141	     -0.06957411	     30.41958557	    -11.32416810	     -3.14223473	     46.55507699	      0.81253938	     27.29419214	    -14.05598181	     -7.37628793	     31.22816302	    -11.59171331	     -5.40404050	     46.38630625	      0.80959377	     25.37351052	     -3.57993928	     -7.37628793	    -10.58491406	     -2.61619122	      0.43675893	     53.87828014	     11.71591977	     65.26435647	    125.98823451	     93.09890236	     59.24782569	      9.89348582	     59.71370273	    129.33698678	     72.15750764
      0.25000000	     -6.54558607	      4.16394168	      1.33762072	      0.35844444	      0.87294248	     -0.06822495	     33.08540747	    -11.60356781	     -3.39766697	     49.98994673	      0.87248916	     28.60801468	    -13.24421081	     -7.38426644	     33.83364145	    -12.43656978	     -5.38375465	     49.59725306	      0.86563537	     27.09055083	     -3.24921159	     -7.38426644	    -11.56358952	     -2.44934775	      0.70929192	     55.58328214	     11.72305970	     64.75828833	    126.36139883	     92.00846008	     60.78273215	     10.46452579	     60.03873201	    129.83824797	     71.62773160
      0.26666670	     -7.58868450	      3.77771112	      1.31678996	      0.34372330	      0.86273607	     -0.06700378	     36.66053194	    -11.91152642	     -4.12798367	     53.56682327	      0.93491744	     30.71346809	    -10.57381449	     -7.38711462	     37.30424458	    -13.62329692	     -5.51870357	     52.84563420	      0.92233031	     29.17585112	     -0.82592408	     -7.38711462	    -12.60667550	     -2.30998469	      0.91486664	     56.94348676	     11.34749118	     64.98238160	    127.29129574	     92.76217791	     62.79508869	     10.44556838	     61.14610271	    129.60613242	     72.04927764
